<svg width="65" height="65" viewBox="0 0 65 65" fill="none" xmlns="http://www.w3.org/2000/svg">
<path d="M21.6465 38.7697L28.9766 13.1935H34.7773L42.1074 38.7697L47.0381 13.1935H54.4736L45.6406 51.5314H38.8379L32.0352 24.7423L24.916 51.5314H18.1133L9.28027 13.1935H16.7158L21.6465 38.7697Z" fill="white"/>
<path d="M21.6465 38.7697L17.7188 39.5269L25.4917 39.8717L21.6465 38.7697ZM28.9766 13.1935V9.19351H25.9619L25.1314 12.0915L28.9766 13.1935ZM34.7773 13.1935L38.6225 12.0915L37.792 9.19351H34.7773V13.1935ZM42.1074 38.7697L38.2622 39.8717L46.0351 39.5269L42.1074 38.7697ZM47.0381 13.1935V9.19351H43.7356L43.1104 12.4363L47.0381 13.1935ZM54.4736 13.1935L58.3715 14.0916L59.5 9.19351H54.4736V13.1935ZM45.6406 51.5314V55.5314H48.8238L49.5385 52.4295L45.6406 51.5314ZM38.8379 51.5314L34.9609 52.5159L35.7267 55.5314H38.8379V51.5314ZM32.0352 24.7423L35.9121 23.7578L32.1231 8.83696L28.1693 23.715L32.0352 24.7423ZM24.916 51.5314V55.5314H27.9919L28.7818 52.5587L24.916 51.5314ZM18.1133 51.5314L14.2154 52.4295L14.9301 55.5314H18.1133V51.5314ZM9.28027 13.1935V9.19351H4.25388L5.38239 14.0916L9.28027 13.1935ZM16.7158 13.1935L20.6435 12.4363L20.0183 9.19351H16.7158V13.1935ZM25.4917 39.8717L32.8218 14.2955L25.1314 12.0915L17.8013 37.6677L25.4917 39.8717ZM28.9766 17.1935H34.7773V9.19351H28.9766V17.1935ZM30.9321 14.2955L38.2622 39.8717L45.9526 37.6677L38.6225 12.0915L30.9321 14.2955ZM46.0351 39.5269L50.9658 13.9507L43.1104 12.4363L38.1797 38.0125L46.0351 39.5269ZM47.0381 17.1935H54.4736V9.19351H47.0381V17.1935ZM50.5758 12.2954L41.7427 50.6333L49.5385 52.4295L58.3715 14.0916L50.5758 12.2954ZM45.6406 47.5314H38.8379V55.5314H45.6406V47.5314ZM42.7148 50.5469L35.9121 23.7578L28.1582 25.7268L34.9609 52.5159L42.7148 50.5469ZM28.1693 23.715L21.0502 50.5041L28.7818 52.5587L35.901 25.7697L28.1693 23.715ZM24.916 47.5314H18.1133V55.5314H24.916V47.5314ZM22.0112 50.6333L13.1782 12.2954L5.38239 14.0916L14.2154 52.4295L22.0112 50.6333ZM9.28027 17.1935H16.7158V9.19351H9.28027V17.1935ZM12.7881 13.9507L17.7188 39.5269L25.5742 38.0125L20.6435 12.4363L12.7881 13.9507Z" fill="black"/>
</svg>
